# xmcd
#
# Track frame offsets:
#  150
#  20804
#  38783
#  60533
#
# Disc length: 1018 seconds
#
# Revision: 0
# Processed by: cddbd v1.5.1PL2 Copyright (c) Steve Scherf et al.
# Submitted via: Collectorz.com_Music_Collector 6.9
#
DISCID=2e03f804
DTITLE=The Kurt Williams Band - The Kurt Williams Band
DYEAR=2005
DGENRE=Blues -  Blues Folk
TTITLE0=Hope Is Dead
TTITLE1=Forked Tongue
TTITLE2=Enraptured
TTITLE3=King Lover Man
EXTD=
EXTT0=
EXTT1=
EXTT2=
EXTT3=
PLAYORDER=
